<svg width="24" height="24" viewBox="0 0 24 24" fill="none" xmlns="http://www.w3.org/2000/svg">
<circle cx="12" cy="12" r="12" fill="#FFB400"/>
<g clip-path="url(#clip0_2_468)">
<path d="M7.93809 6.46978C7.9379 6.8594 7.78293 7.23298 7.5073 7.50834C7.23166 7.7837 6.85793 7.93829 6.46831 7.93809C6.0787 7.9379 5.70512 7.78294 5.42975 7.5073C5.15439 7.23166 4.99981 6.85793 5 6.46831C5.00019 6.0787 5.15516 5.70512 5.43079 5.42975C5.70643 5.15439 6.08016 4.99981 6.46978 5C6.85939 5.00019 7.23298 5.15516 7.50834 5.43079C7.7837 5.70643 7.93829 6.08016 7.93809 6.46978ZM7.98216 9.02592H5.04407V18.2221H7.98216V9.02592ZM12.6243 9.02592H9.70094V18.2221H12.595V13.3963C12.595 10.708 16.0986 10.4582 16.0986 13.3963V18.2221H19V12.3974C19 7.86537 13.8143 8.03431 12.595 10.2599L12.6243 9.02592Z" fill="white"/>
</g>
<defs>
<clipPath id="clip0_2_468">
<rect width="14" height="14" fill="white" transform="translate(5 5)"/>
</clipPath>
</defs>
</svg>
