<svg width="17" height="18" viewBox="0 0 17 18" fill="none" xmlns="http://www.w3.org/2000/svg">
<path d="M11.7636 11.1551L8.25 14.1902L4.73638 11.1551C2.10301 11.2537 0 13.1149 0 15.4119V15.7173C0 16.5604 0.791853 17.2444 1.76786 17.2444H14.7321C15.7081 17.2444 16.5 16.5604 16.5 15.7173V15.4119C16.5 13.1149 14.397 11.2537 11.7636 11.1551ZM0.500893 3.49418L0.736607 3.5419V5.39986C0.478795 5.53348 0.294643 5.76573 0.294643 6.04569C0.294643 6.31294 0.464063 6.53564 0.70346 6.67244L0.128906 8.65448C0.0662946 8.874 0.20625 9.09988 0.408817 9.09988H1.94833C2.15089 9.09988 2.29085 8.874 2.22824 8.65448L1.65368 6.67244C1.89308 6.53564 2.0625 6.31294 2.0625 6.04569C2.0625 5.76573 1.87835 5.53348 1.62054 5.39986V3.72642L4.05134 4.23227C3.7346 4.77948 3.53571 5.39032 3.53571 6.04569C3.53571 8.29498 5.64609 10.1179 8.25 10.1179C10.8539 10.1179 12.9643 8.29498 12.9643 6.04569C12.9643 5.39032 12.7691 4.77948 12.4487 4.23227L15.9954 3.49418C16.6657 3.35419 16.6657 2.63201 15.9954 2.49202L8.98292 1.02856C8.50413 0.929934 7.99955 0.929934 7.52076 1.02856L0.500893 2.48884C-0.165737 2.62882 -0.165737 3.35419 0.500893 3.49418Z"/>
</svg>
