<svg width="17" height="18" viewBox="0 0 17 18" fill="none" xmlns="http://www.w3.org/2000/svg">
<path d="M16.5 5.24158V5.45459H11V0.95459H11.2603C11.5338 0.95459 11.7962 1.0435 11.9896 1.2017L16.198 4.64494C16.3913 4.80319 16.5 5.0178 16.5 5.24158ZM10.6562 6.57959C10.0891 6.57959 9.625 6.1999 9.625 5.73584V0.95459H1.03125C0.461699 0.95459 0 1.33234 0 1.79834V18.1108C0 18.5768 0.461699 18.9546 1.03125 18.9546H15.4688C16.0383 18.9546 16.5 18.5768 16.5 18.1108V6.57959H10.6562ZM5.29401 15.0348C5.27317 15.053 5.24815 15.0677 5.22039 15.078C5.19263 15.0882 5.16266 15.0939 5.13221 15.0947C5.10175 15.0955 5.0714 15.0914 5.04289 15.0826C5.01437 15.0738 4.98826 15.0605 4.96603 15.0435L2.17882 12.9056C2.15567 12.8878 2.13722 12.8664 2.1246 12.8425C2.11199 12.8187 2.10548 12.793 2.10548 12.7671C2.10548 12.7411 2.11199 12.7154 2.1246 12.6916C2.13722 12.6678 2.15567 12.6463 2.17882 12.6286L4.96603 10.4907C4.98826 10.4736 5.01437 10.4603 5.04289 10.4515C5.0714 10.4427 5.10175 10.4386 5.13221 10.4394C5.16266 10.4402 5.19263 10.4459 5.22039 10.4562C5.24815 10.4665 5.27317 10.4811 5.29401 10.4993L6.13529 11.2335C6.15655 11.2521 6.17304 11.274 6.18377 11.2978C6.19451 11.3217 6.19927 11.3471 6.19778 11.3725C6.19629 11.3979 6.18858 11.4228 6.1751 11.4457C6.16161 11.4686 6.14264 11.4891 6.11931 11.5059L4.36777 12.7671L6.11931 14.0283C6.14264 14.0451 6.16161 14.0656 6.1751 14.0885C6.18858 14.1114 6.19629 14.1363 6.19778 14.1617C6.19927 14.1871 6.19451 14.2125 6.18377 14.2364C6.17304 14.2602 6.15655 14.2821 6.13529 14.3006L5.29401 15.0348ZM7.49809 16.8095L6.31847 16.5293C6.25937 16.5153 6.20951 16.4826 6.17985 16.4385C6.15019 16.3943 6.14316 16.3424 6.1603 16.294L8.8003 8.85406C8.81747 8.80571 8.85741 8.76491 8.91133 8.74065C8.96525 8.71638 9.02874 8.71062 9.08785 8.72465L10.2674 9.00484C10.2967 9.0118 10.324 9.0234 10.3478 9.03898C10.3716 9.05457 10.3914 9.07383 10.406 9.09568C10.4207 9.11753 10.43 9.14153 10.4334 9.16631C10.4367 9.19109 10.434 9.21617 10.4256 9.24011L7.78555 16.6801C7.77707 16.704 7.76291 16.7264 7.74387 16.7458C7.72483 16.7653 7.70129 16.7815 7.6746 16.7935C7.6479 16.8056 7.61857 16.8131 7.58829 16.8159C7.558 16.8186 7.52735 16.8165 7.49809 16.8095ZM14.4071 12.9056L11.6199 15.0435C11.5977 15.0605 11.5716 15.0738 11.5431 15.0826C11.5145 15.0914 11.4842 15.0955 11.4537 15.0947C11.4233 15.0939 11.3933 15.0882 11.3655 15.078C11.3378 15.0677 11.3128 15.053 11.2919 15.0348L10.4506 14.3006C10.4293 14.2821 10.4129 14.2602 10.4021 14.2363C10.3914 14.2125 10.3866 14.1871 10.3881 14.1617C10.3896 14.1363 10.3973 14.1114 10.4108 14.0884C10.4243 14.0655 10.4433 14.0451 10.4666 14.0282L12.2182 12.7671L10.4666 11.5059C10.4433 11.4891 10.4243 11.4686 10.4108 11.4457C10.3974 11.4228 10.3896 11.3979 10.3882 11.3725C10.3867 11.3471 10.3914 11.3217 10.4022 11.2978C10.4129 11.274 10.4294 11.2521 10.4506 11.2335L11.292 10.4993C11.3128 10.4811 11.3378 10.4665 11.3656 10.4562C11.3934 10.4459 11.4233 10.4402 11.4538 10.4394C11.4842 10.4386 11.5146 10.4427 11.5431 10.4515C11.5716 10.4603 11.5977 10.4736 11.62 10.4907L14.4072 12.6286C14.4303 12.6463 14.4488 12.6678 14.4614 12.6916C14.474 12.7154 14.4805 12.7411 14.4805 12.7671C14.4805 12.793 14.474 12.8187 14.4613 12.8425C14.4487 12.8664 14.4303 12.8878 14.4071 12.9056Z"/>
</svg>
