<svg width="25" height="23" viewBox="0 0 25 23" fill="none" xmlns="http://www.w3.org/2000/svg">
  <path d="M12.5 22.6807C5.59625 22.6807 0 17.6164 0 11.3689C0 5.12142 5.59625 0.0571289 12.5 0.0571289C19.4037 0.0571289 25 5.12142 25 11.3689C25 17.6164 19.4037 22.6807 12.5 22.6807ZM4.16125 16.3744C4.98286 17.4868 6.06683 18.4205 7.33513 19.1083C8.60342 19.796 10.0245 20.2207 11.4959 20.3518C12.9674 20.4828 14.4526 20.3169 15.8448 19.8661C17.2369 19.4152 18.5012 18.6906 19.5466 17.7445C20.5921 16.7983 21.3927 15.6541 21.8908 14.3943C22.3888 13.1345 22.572 11.7904 22.4271 10.4588C22.2822 9.12722 21.8127 7.84129 21.0526 6.69362C20.2925 5.54595 19.2606 4.5651 18.0312 3.82169C18.5702 5.5617 18.5875 7.4002 18.0814 9.14826C17.5752 10.8963 16.5639 12.4909 15.1513 13.7681C13.74 15.0463 11.9781 15.9614 10.0467 16.4194C8.11522 16.8775 6.08385 16.8619 4.16125 16.3744Z"/>
</svg>
