<svg width="16" height="15" viewBox="0 0 16 15" fill="none" xmlns="http://www.w3.org/2000/svg">
<path d="M5.75 8.7773V10.8134H10.25V8.7773H15.5V13.5282C15.5 13.7083 15.421 13.8809 15.2803 14.0082C15.1397 14.1355 14.9489 14.207 14.75 14.207H1.25C1.05109 14.207 0.860322 14.1355 0.71967 14.0082C0.579018 13.8809 0.5 13.7083 0.5 13.5282V8.7773H5.75ZM7.25 7.41988H8.75V9.45601H7.25V7.41988ZM4.25 3.34764V1.31152C4.25 1.13152 4.32902 0.958884 4.46967 0.831601C4.61032 0.704319 4.80109 0.632813 5 0.632812H11C11.1989 0.632813 11.3897 0.704319 11.5303 0.831601C11.671 0.958884 11.75 1.13152 11.75 1.31152V3.34764H14.75C14.9489 3.34764 15.1397 3.41915 15.2803 3.54643C15.421 3.67371 15.5 3.84634 15.5 4.02635V7.41988H10.25V6.06247H5.75V7.41988H0.5V4.02635C0.5 3.84634 0.579018 3.67371 0.71967 3.54643C0.860322 3.41915 1.05109 3.34764 1.25 3.34764H4.25ZM5.75 1.99023V3.34764H10.25V1.99023H5.75Z"/>
</svg>
